<svg width="18" height="21" viewBox="0 0 18 21" fill="none" xmlns="http://www.w3.org/2000/svg">
<path d="M2.30567 20.0269C1.75567 20.0269 1.28467 19.8309 0.892666 19.4389C0.500666 19.0469 0.304999 18.5762 0.305666 18.0269V4.02686H2.30567V18.0269H13.3057V20.0269H2.30567ZM6.30567 16.0269C5.75567 16.0269 5.28467 15.8309 4.89267 15.4389C4.50067 15.0469 4.305 14.5762 4.30567 14.0269V2.02686C4.30567 1.47686 4.50167 1.00586 4.89367 0.613857C5.28567 0.221857 5.75633 0.0261905 6.30567 0.0268572H15.3057C15.8557 0.0268572 16.3267 0.222857 16.7187 0.614857C17.1107 1.00686 17.3063 1.47752 17.3057 2.02686V14.0269C17.3057 14.5769 17.1097 15.0479 16.7177 15.4399C16.3257 15.8319 15.855 16.0275 15.3057 16.0269H6.30567ZM6.30567 14.0269H15.3057V2.02686H6.30567V14.0269Z" fill="black"/>
</svg>
